# xmcd
#
# Track frame offsets: 
#        150
#        13964
#        28711
#        43310
#        59204
#        73213
#        92476
#        104539
#        115576
#        128783
#        144447
#        156974
#        170887
#        188675
#        202258
#        216704
#        229357
#        246532
#        264497
#
# Disc length: 3686 seconds
#
# Revision: 1
# Processed by: cddbd v1.5.2PL0 Copyright (c) Steve Scherf et al.
# Submitted via: ExactAudioCopy v0.99pb5
#
DISCID=380e6413
DTITLE=Dolly Parton - The Very Best Of - Volume 2
DYEAR=2007
DGENRE=Country
TTITLE0=Joshua
TTITLE1=The Seeker
TTITLE2=Harper Valley PTA
TTITLE3=Heartbreaker
TTITLE4=Two Doors Down
TTITLE5=Boulder To Birmingham
TTITLE6=Put It Off Until Tomorrow (With Tammy Wynette and Loretta Lynn)
TTITLE7=All I Can Do
TTITLE8=(Your Love Has Lifted Me) Higher And Higher
TTITLE9=Rockin' Years (With Ricky Van Shelton)
TTITLE10=In The Ghetto
TTITLE11=Just Because I'm A Woman
TTITLE12=Yellow Roses
TTITLE13=I Really Don't Want To Know (With Willie Nelson)
TTITLE14=Eagle When She Flies
TTITLE15=Please Don't Stop Loving Me (With Porter Wagoner)
TTITLE16=Down From Dover
TTITLE17=Where Beauty Lives In Memory
TTITLE18=To Daddy
EXTD=YEAR: 2007
EXTT0=
EXTT1=
EXTT2=
EXTT3=
EXTT4=
EXTT5=
EXTT6=
EXTT7=
EXTT8=
EXTT9=
EXTT10=
EXTT11=
EXTT12=
EXTT13=
EXTT14=
EXTT15=
EXTT16=
EXTT17=
EXTT18=
PLAYORDER=
